# xmcd CD database file generated by LOLA_Freedb v0.9beta0
# 
# Track frame offsets:
#      150
#      13568
#      29568
#      43762
#      53716
#      65768
#      80918
#      94537
#      113774
#      130155
# 
# Disc length: 1937 seconds
# 
# Revision: 0 
# Processed by: cddbd v1.5.1PL2 Copyright (c) Steve Scherf et al.
# Submitted via: LOLA_Freedb v0.9beta0
# 
DISCID=84078f0a
DTITLE=Tanya Tucker - Should I do it
DYEAR=1981
DGENRE=
TTITLE0=Tanya Tucker - Should I do it
TTITLE1=Tanya Tucker - Stormy weather
TTITLE2=Tanya Tucker - Halfway to heaven
TTITLE3=Tanya Tucker - Heartache # 3
TTITLE4=Tanya Tucker - You don't have to say you love me
TTITLE5=Tanya Tucker - Rodeo girls
TTITLE6=Tanya Tucker - I oughta' let go
TTITLE7=Tanya Tucker - Lucky enough for two
TTITLE8=Tanya Tucker - We're playing games again
TTITLE9=Tanya Tucker - Shoulder to shoulder
EXTD=
EXTT0=
EXTT1=
EXTT2=
EXTT3=
EXTT4=
EXTT5=
EXTT6=
EXTT7=
EXTT8=
EXTT9=with Glen Campbell
PLAYORDER=
